<svg width="42" height="42" viewBox="0 0 42 42" fill="none" xmlns="http://www.w3.org/2000/svg">
<path d="M15.75 38.5H26.25C35 38.5 38.5 35 38.5 26.25V15.75C38.5 7 35 3.5 26.25 3.5H15.75C7 3.5 3.5 7 3.5 15.75V26.25C3.5 35 7 38.5 15.75 38.5Z" stroke="black" stroke-opacity="0.11" stroke-width="1.5" stroke-linecap="round" stroke-linejoin="round"/>
<path d="M26.7211 15.75C27.4173 15.75 28.085 15.4734 28.5773 14.9812C29.0696 14.4889 29.3461 13.8212 29.3461 13.125C29.3461 12.4288 29.0696 11.7611 28.5773 11.2688C28.085 10.7766 27.4173 10.5 26.7211 10.5C26.0249 10.5 25.3573 10.7766 24.865 11.2688C24.3727 11.7611 24.0961 12.4288 24.0961 13.125C24.0961 13.8212 24.3727 14.4889 24.865 14.9812C25.3573 15.4734 26.0249 15.75 26.7211 15.75V15.75ZM14.4711 15.75C15.1673 15.75 15.835 15.4734 16.3273 14.9812C16.8196 14.4889 17.0961 13.8212 17.0961 13.125C17.0961 12.4288 16.8196 11.7611 16.3273 11.2688C15.835 10.7766 15.1673 10.5 14.4711 10.5C13.7749 10.5 13.1073 10.7766 12.615 11.2688C12.1227 11.7611 11.8461 12.4288 11.8461 13.125C11.8461 13.8212 12.1227 14.4889 12.615 14.9812C13.1073 15.4734 13.7749 15.75 14.4711 15.75ZM14.2961 21.9625H26.8961C27.7711 21.9625 28.4711 22.6625 28.4711 23.5375C28.4711 27.895 24.9536 31.4125 20.5961 31.4125C16.2386 31.4125 12.7211 27.895 12.7211 23.5375C12.7211 22.6625 13.4211 21.9625 14.2961 21.9625V21.9625Z" stroke="black" stroke-opacity="0.11" stroke-width="1.5" stroke-miterlimit="10" stroke-linecap="round" stroke-linejoin="round"/>
</svg>
