<svg width="41" height="41" viewBox="0 0 41 41" fill="none" xmlns="http://www.w3.org/2000/svg">
<path d="M15.375 37.5833H25.625C34.1667 37.5833 37.5833 34.1667 37.5833 25.625V15.375C37.5833 6.83334 34.1667 3.41667 25.625 3.41667H15.375C6.83333 3.41667 3.41667 6.83334 3.41667 15.375V25.625C3.41667 34.1667 6.83333 37.5833 15.375 37.5833Z" stroke="black" stroke-opacity="0.07" stroke-width="1.5" stroke-linecap="round" stroke-linejoin="round"/>
<path d="M26.4792 16.6563C27.1588 16.6563 27.8106 16.3863 28.2911 15.9057C28.7717 15.4251 29.0417 14.7734 29.0417 14.0938C29.0417 13.4141 28.7717 12.7624 28.2911 12.2818C27.8106 11.8012 27.1588 11.5312 26.4792 11.5312C25.7996 11.5312 25.1478 11.8012 24.6672 12.2818C24.1866 12.7624 23.9167 13.4141 23.9167 14.0938C23.9167 14.7734 24.1866 15.4251 24.6672 15.9057C25.1478 16.3863 25.7996 16.6563 26.4792 16.6563V16.6563ZM14.5208 16.6563C15.2005 16.6563 15.8522 16.3863 16.3328 15.9057C16.8134 15.4251 17.0833 14.7734 17.0833 14.0938C17.0833 13.4141 16.8134 12.7624 16.3328 12.2818C15.8522 11.8012 15.2005 11.5312 14.5208 11.5312C13.8412 11.5312 13.1894 11.8012 12.7089 12.2818C12.2283 12.7624 11.9583 13.4141 11.9583 14.0938C11.9583 14.7734 12.2283 15.4251 12.7089 15.9057C13.1894 16.3863 13.8412 16.6563 14.5208 16.6563ZM14.35 22.7208H26.65C27.5042 22.7208 28.1875 23.4042 28.1875 24.2583C28.1875 28.5121 24.7538 31.9458 20.5 31.9458C16.2463 31.9458 12.8125 28.5121 12.8125 24.2583C12.8125 23.4042 13.4958 22.7208 14.35 22.7208V22.7208Z" stroke="black" stroke-opacity="0.07" stroke-width="1.5" stroke-miterlimit="10" stroke-linecap="round" stroke-linejoin="round"/>
</svg>
