<svg width="42" height="41" viewBox="0 0 42 41" fill="none" xmlns="http://www.w3.org/2000/svg">
<path d="M15.75 37.5833H26.25C35 37.5833 38.5 34.1667 38.5 25.625V15.375C38.5 6.83333 35 3.41666 26.25 3.41666H15.75C7 3.41666 3.5 6.83333 3.5 15.375V25.625C3.5 34.1667 7 37.5833 15.75 37.5833Z" stroke="black" stroke-opacity="0.11" stroke-width="1.5" stroke-linecap="round" stroke-linejoin="round"/>
<path d="M27.125 16.6563C27.8212 16.6563 28.4889 16.3863 28.9812 15.9057C29.4734 15.4251 29.75 14.7734 29.75 14.0938C29.75 13.4141 29.4734 12.7624 28.9812 12.2818C28.4889 11.8012 27.8212 11.5312 27.125 11.5312C26.4288 11.5312 25.7611 11.8012 25.2688 12.2818C24.7766 12.7624 24.5 13.4141 24.5 14.0938C24.5 14.7734 24.7766 15.4251 25.2688 15.9057C25.7611 16.3863 26.4288 16.6563 27.125 16.6563V16.6563ZM14.875 16.6563C15.5712 16.6563 16.2389 16.3863 16.7312 15.9057C17.2234 15.4251 17.5 14.7734 17.5 14.0938C17.5 13.4141 17.2234 12.7624 16.7312 12.2818C16.2389 11.8012 15.5712 11.5312 14.875 11.5312C14.1788 11.5312 13.5111 11.8012 13.0188 12.2818C12.5266 12.7624 12.25 13.4141 12.25 14.0938C12.25 14.7734 12.5266 15.4251 13.0188 15.9057C13.5111 16.3863 14.1788 16.6563 14.875 16.6563ZM14.7 22.7208H27.3C28.175 22.7208 28.875 23.4042 28.875 24.2583C28.875 28.5121 25.3575 31.9458 21 31.9458C16.6425 31.9458 13.125 28.5121 13.125 24.2583C13.125 23.4042 13.825 22.7208 14.7 22.7208V22.7208Z" stroke="black" stroke-opacity="0.11" stroke-width="1.5" stroke-miterlimit="10" stroke-linecap="round" stroke-linejoin="round"/>
</svg>
