<svg width="11706" height="3894" viewBox="0 0 11706 3894" fill="none" xmlns="http://www.w3.org/2000/svg">
<path d="M11679.8 3890.58H11690.2C11699 3890.58 11702.5 3887.17 11702.5 3878.62V3868.37C11702.5 3859.83 11699 3856.42 11690.2 3856.42H11679.8C11671 3856.42 11667.5 3859.83 11667.5 3868.37V3878.62C11667.5 3887.17 11671 3890.58 11679.8 3890.58Z" stroke="black" stroke-opacity="0.11" stroke-width="1.5" stroke-linecap="round" stroke-linejoin="round"/>
<path d="M11691.1 3869.66C11691.8 3869.66 11692.5 3869.39 11693 3868.91C11693.5 3868.43 11693.8 3867.77 11693.8 3867.09C11693.8 3866.41 11693.5 3865.76 11693 3865.28C11692.5 3864.8 11691.8 3864.53 11691.1 3864.53C11690.4 3864.53 11689.8 3864.8 11689.3 3865.28C11688.8 3865.76 11688.5 3866.41 11688.5 3867.09C11688.5 3867.77 11688.8 3868.43 11689.3 3868.91C11689.8 3869.39 11690.4 3869.66 11691.1 3869.66V3869.66ZM11678.9 3869.66C11679.6 3869.66 11680.2 3869.39 11680.7 3868.91C11681.2 3868.43 11681.5 3867.77 11681.5 3867.09C11681.5 3866.41 11681.2 3865.76 11680.7 3865.28C11680.2 3864.8 11679.6 3864.53 11678.9 3864.53C11678.2 3864.53 11677.5 3864.8 11677 3865.28C11676.5 3865.76 11676.2 3866.41 11676.2 3867.09C11676.2 3867.77 11676.5 3868.43 11677 3868.91C11677.5 3869.39 11678.2 3869.66 11678.9 3869.66ZM11678.7 3875.72H11691.3C11692.2 3875.72 11692.9 3876.4 11692.9 3877.26C11692.9 3881.51 11689.4 3884.95 11685 3884.95C11680.6 3884.95 11677.1 3881.51 11677.1 3877.26C11677.1 3876.4 11677.8 3875.72 11678.7 3875.72V3875.72Z" stroke="black" stroke-opacity="0.11" stroke-width="1.5" stroke-miterlimit="10" stroke-linecap="round" stroke-linejoin="round"/>
<path d="M33.9433 7.19751C37.9035 9.11898 41.2682 12.2234 42.0823 16.1951C42.5296 18.9396 42.0392 21.7395 40.6741 24.2365C38.9271 27.6846 36.18 30.6641 32.7106 32.8738C29.9316 34.6438 26.6687 35.9499 24.503 38.2727C22.4559 40.4681 21.3561 43.5697 18.3691 44.7051C16.8803 45.2039 15.251 45.2739 13.7144 44.9052C-0.6572 41.9587 1.31864 23.462 7.98427 15.5782L8.00592 15.5526C9.07948 14.189 10.3733 12.9715 11.8463 11.9389" stroke="black" stroke-opacity="0.06" stroke-width="4.82578" stroke-linecap="round" stroke-linejoin="round"/>
<path d="M27.9561 2.84961V7.19646" stroke="black" stroke-opacity="0.06" stroke-width="4.82578" stroke-linecap="round" stroke-linejoin="round"/>
<path d="M27.0606 5.1838C27.0606 5.1838 23.5714 10.0309 18.5866 11.4312C13.6018 12.8315 7.37109 10.8926 7.37109 10.8926C7.37109 10.8926 10.8603 6.04551 15.8451 4.64519C20.8299 3.24487 27.0606 5.1838 27.0606 5.1838V5.1838Z" stroke="black" stroke-opacity="0.06" stroke-width="4.82578" stroke-linecap="round" stroke-linejoin="round"/>
</svg>
