<svg width="26" height="25" viewBox="0 0 26 25" fill="none" xmlns="http://www.w3.org/2000/svg">
<path d="M22.7608 11.6875V16.3646C22.7608 21.0417 20.8217 22.9167 15.9467 22.9167H10.1075C9.47917 22.9167 8.905 22.8854 8.37417 22.8125M3.29333 16.1667V11.6875M13.0325 12.5C15.015 12.5 16.4775 10.9479 16.2825 9.04168L15.5567 2.08334H10.4975L9.77167 9.04168C9.57667 10.9479 11.05 12.5 13.0325 12.5Z" stroke="black" stroke-opacity="0.21" stroke-width="1.5" stroke-linecap="round" stroke-linejoin="round"/>
<path d="M19.8575 12.5C22.0458 12.5 23.6492 10.7917 23.4325 8.69793L23.1292 5.83334C22.7392 3.12501 21.6558 2.08334 18.8175 2.08334H15.5133L16.2717 9.38543C16.4667 11.1042 18.07 12.5 19.8575 12.5ZM6.1425 12.5C7.93 12.5 9.54417 11.1042 9.7175 9.38543L9.95584 7.08334L10.4758 2.08334H7.17167C4.33334 2.08334 3.25 3.12501 2.86 5.83334L2.55667 8.69793C2.34 10.7917 3.95417 12.5 6.1425 12.5Z" stroke="black" stroke-opacity="0.21" stroke-width="1.5" stroke-linecap="round" stroke-linejoin="round"/>
<path d="M7.03084 19.7708H3.80251M5.41668 18.25V21.3646M9.75001 19.7917C9.75001 20.5729 9.52251 21.3125 9.12168 21.9375C8.91584 22.2708 8.66668 22.5729 8.37418 22.8125C8.34168 22.8542 8.30918 22.8854 8.26584 22.9167C7.50751 23.5729 6.51084 23.9583 5.41668 23.9583C4.09501 23.9583 2.91418 23.3854 2.13418 22.4896C2.11251 22.4583 2.08001 22.4375 2.05834 22.4062C1.92834 22.2604 1.80918 22.1042 1.71168 21.9375C1.31084 21.3125 1.08334 20.5729 1.08334 19.7917C1.08334 18.4792 1.71168 17.3021 2.70834 16.5417C2.89251 16.3958 3.08751 16.2708 3.29334 16.1667C3.92168 15.8229 4.64751 15.625 5.41668 15.625C6.50001 15.625 7.47501 16 8.23334 16.6354C8.36334 16.7292 8.48251 16.8438 8.59084 16.9583C9.30584 17.7083 9.75001 18.6979 9.75001 19.7917Z" stroke="black" stroke-opacity="0.21" stroke-width="1.5" stroke-miterlimit="10" stroke-linecap="round" stroke-linejoin="round"/>
</svg>
