<svg width="28" height="27" viewBox="0 0 28 27" fill="none" xmlns="http://www.w3.org/2000/svg">
<g clip-path="url(#clip0_205_27)">
<path d="M4.45639 11.8246L4.18148 16.4533C3.90657 21.082 5.74863 23.0424 10.6185 23.3037L16.4644 23.6174C21.3343 23.8787 23.3967 22.1278 23.6716 17.4991L23.9465 12.8704" stroke="black" stroke-opacity="0.06" stroke-width="1.5" stroke-linecap="round" stroke-linejoin="round"/>
<path d="M14.1591 13.1519C16.1439 13.2584 17.6994 11.8009 17.6162 9.90389L17.3094 2.97909L12.2443 2.70732L11.1086 9.55472C10.8013 11.4308 12.1743 13.0454 14.1591 13.1519Z" stroke="black" stroke-opacity="0.06" stroke-width="1.5" stroke-linecap="round" stroke-linejoin="round"/>
<path d="M21.0029 13.5191C23.1938 13.6367 24.8994 12.0321 24.8056 9.94837L24.6703 7.09711C24.439 4.39583 23.4156 3.30674 20.574 3.15427L17.266 2.97677L17.596 10.2441C17.6793 11.955 19.2134 13.4231 21.0029 13.5191ZM7.26112 12.7818C9.0507 12.8778 10.7488 11.5831 11.0234 9.89142L11.3973 7.62595L12.2118 2.70558L8.90376 2.52808C6.06212 2.37561 4.9163 3.34831 4.36666 6.00769L3.90544 8.82694C3.56546 10.8874 5.07024 12.6642 7.26112 12.7818ZM13.853 18.3064C12.0417 18.2092 11.0907 19.0165 10.9885 20.7381L10.8354 23.3154L16.2584 23.6063L16.4114 21.0291C16.5137 19.3075 15.6643 18.4036 13.853 18.3064Z" stroke="black" stroke-opacity="0.06" stroke-width="1.5" stroke-linecap="round" stroke-linejoin="round"/>
</g>
<defs>
<clipPath id="clip0_205_27">
<rect width="26.0677" height="24.7851" fill="white" transform="matrix(0.998564 0.0535797 -0.0592876 0.998241 1.87872 0.0827637)"/>
</clipPath>
</defs>
</svg>
