<?xml version="1.0" encoding="utf-8"?>
<!-- Generator: Adobe Illustrator 19.0.0, SVG Export Plug-In . SVG Version: 6.00 Build 0)  -->
<svg version="1.1" id="Layer_1" xmlns="http://www.w3.org/2000/svg" xmlns:xlink="http://www.w3.org/1999/xlink" x="0px" y="0px"
	 viewBox="0 0 1440 1040" style="enable-background:new 0 0 1440 1040;" xml:space="preserve">
<g id="XMLID_9_">
	<path id="XMLID_17_" d="M582.5,454.2c16.8,0,30.3-7.2,38-20.7c1.8,13.5,4.1,19.9,12.7,19.9c7.5,0,14.8-2.6,14.8-11.9
		c-0.8-11.1-1-22-1-33.1l0.3-39.3l0.3-19.9c0-9.8-3.1-15.8-13.5-15.8c-6,0-9.6,3.1-11.4,8c-0.5,2.3-1,6.5-1.6,9.6
		c-7.8-11.6-20.7-18.1-35.2-18.1c-33.6,0-59.5,26.1-59.5,63.9C526.4,428.3,548.1,454.2,582.5,454.2z M587.4,357.1
		c16.8,0,32.6,12.7,32.6,36.2c0,22-14.8,36.5-33.9,36.5c-17.3,0-31.1-14.2-31.1-33.9C555.1,372.9,568.8,357.1,587.4,357.1z"/>
	<path id="XMLID_26_" d="M694.1,510.3c10.9,0.3,15.8-4.4,15.8-13.7c0-12.7-0.5-24.8-0.5-33.6c0-9.1-0.3-18.6-0.3-24.1
		c7.2,10.1,19.4,15.8,33.9,15.8c34.9,0,60-27.4,60-62.6c0-33.6-21-60-54.9-60c-16.8,0-31.8,8-39.6,21.5l-0.8-11.9
		c-1-6.5-5.4-9.3-12.2-9.3c-8,0-14,3.6-14.2,12.9l0.3,49.9l-0.3,101.7C681.4,505.9,685.8,510.3,694.1,510.3z M743,356.9
		c16.8,0,31.6,14.2,31.6,34.7c0,22.5-14.8,38.3-33.6,38.3c-19.2,0-31.8-12.9-31.8-36C709.1,371.9,724.6,356.9,743,356.9z"/>
	<path id="XMLID_30_" d="M843.4,510.3c10.9,0.3,15.8-4.4,15.8-13.7c0-12.7-0.5-24.8-0.5-33.6c0-9.1-0.3-18.6-0.3-24.1
		c7.2,10.1,19.4,15.8,33.9,15.8c34.9,0,60-27.4,60-62.6c0-33.6-21-60-54.9-60c-16.8,0-31.8,8-39.6,21.5l-0.8-11.9
		c-1-6.5-5.4-9.3-12.2-9.3c-8,0-14,3.6-14.2,12.9l0.3,49.9l-0.3,101.7C830.7,505.9,835.1,510.3,843.4,510.3z M892.3,356.9
		c16.8,0,31.6,14.2,31.6,34.7c0,22.5-14.8,38.3-33.6,38.3c-19.2,0-31.8-12.9-31.8-36C858.4,371.9,873.9,356.9,892.3,356.9z"/>
	<path id="XMLID_31_" d="M403.7,453.7c6.2,0,10.9-2.1,13.2-6c1-1.7,1.5-3.7,1.5-6.1c0-11.9-0.5-35.2-0.5-50.9
		c0.3-3.2,0.7-6.3,1.1-9.4c3.6-14.7,15.6-24,28.4-24c15.8,0,25.1,10.4,25.1,29.2c0,11.6-0.8,44.8-1.3,54.6c0,8.3,6.7,12.2,14.2,12.2
		c8.8,0,15-3.9,15.3-12.2c0.3-21,0-39.1,0-56.7c0-29.5-16-52.5-46.1-52.5c-10.7,0-20.5,3.7-27.7,9.7c-3.6,3-6.6,6.6-8.8,10.7
		c0.4-44.7,0.7-60.9,0.7-69.7c0-2,0-3.6,0-5.1c0-9.1-4.7-14-13.7-14c-10.1,0-15,5.2-15,15.5l0.2,113.2l0,14.9c0,8.3-0.8,23-0.8,34.4
		C389.7,449.5,395.9,453.7,403.7,453.7z"/>
	<path id="XMLID_32_" d="M546.1,533.9c0,0,18.6,18,42.4,43.4c22.8,24.3,54.3,52.8,92.4,69.9c38.9,17.5,83.9,17.5,122.9,0
		c38-17.1,69.6-45.5,92.4-69.9c23.8-25.5,42.4-43.4,42.4-43.4c-72,48.9-138.8,65.8-196.2,66.4C684.9,599.7,618.1,582.8,546.1,533.9z
		"/>
	<path id="XMLID_33_" d="M949.5,508.6c-0.8-0.4-1.5-0.9-2.3-1.3c-1.5-0.9-3-1.6-4.6-2.2c-6.1-2.5-12.1-3.5-17.2-3.6
		c-5.1-0.1-9.2,0.7-12,1.5c-2.8,0.8-4.3,1.7-4.3,1.7s1.5,0.7,4,2c2.5,1.3,6,3,9.8,5.1c3.8,2.1,8,4.7,11.9,7.6c1.9,1.5,3.9,3,5.6,4.7
		c1.8,1.7,3.5,3.4,5,5.3c1.6,1.8,2.9,3.9,4.3,5.9c0.7,1,1.2,2.1,1.9,3.1c0.6,1.1,1.1,2.2,1.7,3.3c0.5,1.1,1,2.2,1.5,3.3
		c0.5,1.1,0.9,2.3,1.4,3.3c0.5,1.1,0.8,2.2,1.2,3.3c0.5,1.1,0.8,2.1,1.1,3.2c0.7,2.1,1.4,4,2,5.8c0.6,1.8,1.2,3.4,1.6,4.7
		c0.9,2.7,1.6,4.3,1.6,4.3s0.9-1.4,2.1-4.1c0.7-1.3,1.3-3,1.9-4.9c0.3-1,0.6-2,0.9-3.1c0.2-1.1,0.4-2.3,0.7-3.5
		c0.5-2.5,0.6-5.2,0.6-8.2c0-1.5-0.2-3-0.3-4.6c-0.2-1.6-0.5-3.1-0.8-4.8c-0.4-1.6-0.9-3.2-1.4-4.9c-0.6-1.6-1.2-3.3-2-4.9
		c-1.6-3.2-3.5-6.4-5.9-9.2c-2.3-2.8-5.1-5.3-8-7.4L949.5,508.6z"/>
	<path id="XMLID_34_" d="M515.8,557.6c0.3,1.1,0.6,2.1,0.9,3.1c0.6,1.9,1.2,3.6,1.9,4.9c1.2,2.7,2.1,4.1,2.1,4.1s0.7-1.6,1.6-4.3
		c0.4-1.3,1-2.9,1.6-4.7c0.5-1.8,1.2-3.8,2-5.8c0.3-1,0.7-2.1,1.1-3.2c0.4-1.1,0.7-2.2,1.2-3.3c0.5-1.1,0.9-2.2,1.4-3.3
		c0.6-1.1,1-2.2,1.5-3.3c0.6-1.1,1.1-2.2,1.7-3.3c0.7-1,1.2-2.1,1.9-3.1c1.4-2,2.7-4.1,4.3-5.9c1.5-1.9,3.2-3.6,5-5.3
		c1.8-1.7,3.7-3.2,5.6-4.7c4-2.9,8.1-5.5,11.9-7.6c3.8-2.1,7.3-3.9,9.8-5.1c2.6-1.3,4-2,4-2s-1.5-0.8-4.3-1.7c-2.8-0.8-7-1.6-12-1.5
		c-5.1,0-11.1,1-17.2,3.6c-1.5,0.7-3.1,1.3-4.6,2.2c-0.8,0.4-1.5,0.9-2.3,1.3l-2.2,1.5c-2.9,2.1-5.6,4.6-8,7.4
		c-2.4,2.8-4.3,6-5.9,9.2c-0.8,1.6-1.4,3.3-2,4.9c-0.5,1.7-1,3.3-1.4,4.9c-0.3,1.6-0.6,3.2-0.8,4.8c-0.1,1.6-0.2,3.1-0.3,4.6
		c0,2.9,0.1,5.7,0.6,8.2C515.4,555.3,515.6,556.5,515.8,557.6z"/>
	<path id="XMLID_35_" d="M1090.5,377.4c0.1-15.5,0.3-28.2,0.3-30.3c0-1.3-0.1-2.4-0.3-3.5c-0.9-5.9-4.4-9-9.8-9.9
		c-1.2-0.2-2.5-0.3-3.9-0.3c-7.8,0-14.8,4.4-14.8,14.2v30.5v5.7c-0.3,27.2-7.5,45.8-31.1,45.8c-18.9,0-23.8-17.1-23.8-34.7
		c0-19.9,0.3-31.6,0.5-46.8c0-10.1-4.1-14.5-12.7-14.5c-9.6,0-15.8,4.1-15.8,14.8c0,13.5-0.3,36.7-0.3,51c0,32.1,14,55.1,46.6,55.1
		c11.4,0,20.6-3.9,27.7-10.4c5.1-4.7,8.8-10.7,11.2-17.2c0.3-0.8,0.6-1.7,0.9-2.7c0,0.2,0,0.4,0,0.5c0,5.3-0.1,10.5-0.4,15.7
		c-0.1,1.4-0.1,2.8-0.2,4.2c0,0,0,0,0,0.1c-0.1,1.4-0.2,2.8-0.3,4.1c-12.4,167.8-152.8,300.5-323.7,300.5
		c-148.7,0-274.3-100.5-312.6-237.1c14-5.7,25.8-16,33.2-29.7c3.4-6.2,1.8-14.1-4.1-18.1c-6.8-4.6-15.9-2.2-19.6,4.9
		c-3.7,7-9.2,12.5-15.8,16c-4.4,2.4-9.4,3.9-14.6,4.4c-4.2,0.4-8.4,0.1-12.3-0.7c-8.1-1.8-15.5-6.2-21.1-12.9
		c-4.7-5.6-13-7.2-18.9-2.9c-6.3,4.6-7.4,13.5-2.5,19.5c12.1,14.9,30,23.7,48.9,24.3c4.1,15.2,9.3,30.1,15.4,44.7
		c17.7,41.9,43.1,79.5,75.4,111.8c32.3,32.3,69.9,57.7,111.8,75.4c43.4,18.3,89.4,27.7,136.9,27.7c47.5,0,93.6-9.3,136.9-27.7
		c41.9-17.7,79.5-43.1,111.8-75.4c32.3-32.3,57.7-69.9,75.4-111.8c1-2.3,1.9-4.5,2.8-6.8c15.5-38.8,22.8-80.4,22.8-122.1v-30.3
		c0-5.5,0-11.1,0-16.6C1090.4,383,1090.5,380.1,1090.5,377.4z"/>
</g>
</svg>
