<svg width="317" height="243" viewBox="0 0 317 243" fill="none" xmlns="http://www.w3.org/2000/svg">
<path d="M135.746 8.31701C135.925 8.73967 136.058 9.18147 136.143 9.6344C135.95 8.94349 135.798 8.47452 135.746 8.31701Z" fill="#3F3D56" fill-opacity="0.77"/>
<path d="M141.865 30.2042C141.865 30.2042 141.865 30.6982 141.351 32.481L141.865 30.2042Z" fill="#3F3D56" fill-opacity="0.77"/>
<path d="M204.841 104.776C191.276 112.115 173.53 118.451 168.216 120.287C172.268 119.192 184.064 117.717 202.34 129.552C225.304 144.419 249.857 134.507 249.857 134.507C249.857 134.507 244.401 145.364 232.805 146.07C221.21 146.778 190.972 126.957 180.742 132.62C170.509 138.283 165.736 131.202 161.642 145.364C157.551 159.523 150.05 198.221 158.689 219.933L167.326 241.641H118.219C118.219 241.641 135.953 192.557 126.175 162.354C120.702 145.439 113.017 133.189 110.151 126.964C108.713 123.846 108.485 122.242 110.348 122.321C111.407 122.367 113.142 122.958 115.718 124.125C115.718 124.125 103.895 112.09 100.032 112.09C96.1655 112.09 77.9754 110.203 72.0672 103.831C72.0672 103.831 63.6551 97.695 48.6484 112.798C33.6417 127.902 37.2804 127.902 23.8672 126.72C10.6644 125.557 0.320743 118.909 -1.52588e-05 118.702C0.382826 118.863 15.8034 125.26 25.2296 122.002C34.7799 118.698 42.9644 106.19 51.3766 101.944C59.7887 97.695 64.7898 92.0317 76.1577 98.1675L68.6665 79.8351L66.6143 74.8126L66.6109 74.8054C66.6109 74.8054 64.1069 40.3529 59.3334 37.9938C54.56 35.6311 57.5158 29.4988 48.6484 28.3175C48.6484 28.3175 59.5611 26.8998 61.6063 34.6896C63.6551 42.4758 77.7512 84.4817 77.7512 84.4817C77.7512 84.4817 86.3876 102.413 95.9379 98.1675C105.488 93.9182 92.2992 70.0872 92.2992 70.0872L75.9301 62.2974C75.9301 62.2974 88.2086 61.8249 95.7102 69.1421C103.212 76.4557 103.667 100.054 103.667 100.054C103.667 100.054 122.537 102.886 127.086 113.507C127.086 113.507 130.042 104.067 124.358 98.4038C122.937 96.9862 121.443 94.5232 120.005 91.6271C114.553 80.5113 112.583 67.9055 114.369 55.5709C115.214 49.5352 115.735 43.6321 114.807 42.2395C112.762 39.1716 104.122 20.295 103.44 15.3369C102.76 10.3824 104.122 0.000823975 104.122 0.000823975C104.122 0.000823975 104.35 12.7415 107.078 16.7545C109.806 20.7675 117.536 40.5892 117.536 40.5892C117.536 40.5892 117.536 65.6016 123.903 77.8733C130.269 90.1451 142.544 103.831 141.865 112.798V117.989C141.865 117.989 155.506 104.54 154.595 100.054C153.685 95.5721 152.55 84.9507 143.91 78.5822C135.27 72.21 129.586 62.0611 135.726 47.4303C139.178 39.2002 140.689 34.7791 141.351 32.4844L137.771 48.3754C137.771 48.3754 135.498 64.6565 141.865 70.3198C141.882 70.3342 141.896 70.3485 141.913 70.3628C148.27 76.0333 156.641 86.3683 156.641 86.3683L156.616 85.9137L154.823 52.3884L155.216 53.2833L158.051 59.7342L160.735 65.8379C160.735 65.8379 173.465 48.8479 188.472 43.1846C203.475 37.5213 212.797 17.6996 212.797 17.6996L225.531 7.31446L215.07 20.295C215.07 20.295 211.887 35.6311 193.928 46.4888C175.965 57.3429 164.373 73.3878 163.69 83.3004C163.007 93.213 162.325 101.944 162.325 101.944C162.325 101.944 195.973 100.763 203.475 85.4232C210.98 70.0872 217.119 69.3783 217.119 69.3783L212.797 82.5916L208.024 93.9182C208.024 93.9182 227.577 94.3908 237.806 106.426C248.04 118.462 273.5 122.002 273.5 122.002L259.18 126.012C259.18 126.012 245.536 121.293 232.578 112.562C219.62 103.831 220.982 96.0447 204.841 104.776V104.776Z" fill="#3F3D56" fill-opacity="0.77"/>
<path opacity="0.1" d="M212.09 72.5789C210.652 79.1873 208.959 85.5702 206.579 90.4352C199.077 105.775 165.429 106.956 165.429 106.956C165.429 106.956 165.587 104.93 165.829 101.733C174.372 101.003 197.725 97.8849 203.82 85.4234C204.378 84.285 204.896 83.0607 205.386 81.772L212.09 72.5789Z" fill="black" fill-opacity="0.72"/>
<path opacity="0.1" d="M159.745 91.3803C159.745 91.3803 151.333 80.9952 144.969 75.3319C143.572 74.0932 142.593 72.3391 141.913 70.363C141.858 70.2055 141.806 70.0444 141.755 69.8833C141.903 70.0337 142.051 70.1804 142.21 70.3201C147.78 75.2782 154.923 83.8555 156.616 85.9139C156.854 86.2074 156.986 86.3685 156.986 86.3685L155.216 53.2835L158.051 59.7344L159.745 91.3803Z" fill="black" fill-opacity="0.72"/>
<path opacity="0.1" d="M164.614 61.5843C164.565 67.3943 163.838 70.8498 163.838 70.8498C163.838 70.8498 176.565 53.8666 191.566 48.1995C192.452 47.6174 193.352 47.0442 194.273 46.4878C212.234 35.6328 215.417 20.2942 215.417 20.2942L225.875 7.31534L213.143 17.6984C213.143 17.6984 203.821 37.5206 188.816 43.1841C178.588 47.0446 169.417 56.1665 164.614 61.5843V61.5843Z" fill="black" fill-opacity="0.72"/>
<path opacity="0.1" d="M144.968 117.81V123.001C144.968 123.001 158.609 109.55 157.699 105.067C157.004 101.638 156.171 94.6219 151.956 88.6603C153.856 93.1656 154.434 97.5602 154.94 100.055C155.592 103.27 148.763 111.096 144.846 115.267C144.983 116.106 145.024 116.96 144.968 117.81V117.81Z" fill="black" fill-opacity="0.72"/>
<path opacity="0.1" d="M126.669 82.1826C126.777 82.4217 126.889 82.6571 127.007 82.8847C130.493 89.605 135.749 96.7487 139.682 103.311C136.504 96.8123 130.972 89.3814 126.669 82.1826V82.1826Z" fill="black" fill-opacity="0.72"/>
<path opacity="0.1" d="M202.685 129.552C195.206 124.71 188.813 122.097 183.591 120.773C178.113 122.913 173.605 124.509 171.336 125.292C175.405 124.199 187.192 122.747 205.444 134.564C219.764 143.835 234.703 143.47 243.92 141.882C246.469 139.886 248.605 137.378 250.202 134.508C250.202 134.508 225.647 144.419 202.685 129.552V129.552Z" fill="black" fill-opacity="0.72"/>
<path opacity="0.1" d="M137.753 72.1362C135.92 67.4736 135.618 61.9255 137.724 55.4242C137.698 53.0681 137.829 50.7129 138.116 48.3756L141.696 32.4806C141.036 34.7729 139.526 39.1949 136.07 47.4317C131.695 57.8592 133.328 66.0074 137.753 72.1362Z" fill="black" fill-opacity="0.72"/>
<path opacity="0.1" d="M238.152 106.426C231.057 98.0801 219.48 95.2957 213.049 94.3725L211.128 98.9313C211.128 98.9313 230.68 99.4032 240.911 111.438C246.585 118.112 256.941 122.172 265.043 124.467L273.847 122.001C273.847 122.001 248.383 118.461 238.152 106.426V106.426Z" fill="black" fill-opacity="0.72"/>
<path opacity="0.1" d="M99.0421 103.179C108.591 98.9313 95.4044 75.0974 95.4044 75.0974L95.0437 74.9258C98.3312 82.1251 103.099 95.1351 96.2829 98.1671C89.9048 101.004 83.9333 93.9457 80.6702 88.9447C80.7887 89.2984 80.8538 89.4922 80.8538 89.4922C80.8538 89.4922 89.4932 107.427 99.0421 103.179Z" fill="black" fill-opacity="0.72"/>
<path opacity="0.1" d="M130.19 118.518C130.19 118.518 133.067 109.312 127.662 103.628C128.987 108.525 127.43 113.506 127.43 113.506C123.913 105.291 111.826 101.737 106.532 100.549C106.737 103.284 106.772 105.067 106.772 105.067C106.772 105.067 125.643 107.898 130.19 118.518V118.518Z" fill="black" fill-opacity="0.72"/>
<path opacity="0.1" d="M141.696 32.4806C142.208 30.7013 142.208 30.2052 142.208 30.2052L141.696 32.4806Z" fill="black" fill-opacity="0.72"/>
<path opacity="0.1" d="M28.197 127.058C28.2428 127.043 28.2894 127.029 28.3349 127.013C37.8838 123.709 46.0686 111.202 54.4807 106.955C62.8928 102.707 67.8946 97.0435 79.2623 103.179C79.2623 103.179 77.2735 94.7296 73.4196 89.1785C74.6961 92.0765 75.7278 95.084 76.503 98.1671C65.1353 92.0317 60.1336 97.6952 51.7215 101.943C43.3094 106.19 35.1246 118.697 25.5757 122.001C16.0268 125.305 0.339401 118.697 0.339401 118.697C0.339401 118.697 10.7977 125.541 24.2116 126.721C25.7461 126.855 27.0554 126.975 28.197 127.058V127.058Z" fill="black" fill-opacity="0.72"/>
<path opacity="0.1" d="M69.715 79.8174C69.715 79.8174 69.3425 79.8246 68.6665 79.8353L66.6143 74.8128C66.8385 74.8092 66.9558 74.8056 66.9558 74.8056C66.9558 74.8056 65.3761 53.0759 62.3341 42.9485C62.372 42.9664 62.4031 42.9879 62.4376 43.0058C67.211 45.3649 69.715 79.8174 69.715 79.8174V79.8174Z" fill="black" fill-opacity="0.72"/>
<path opacity="0.1" d="M122.984 241.642C127.149 228.387 137.168 191.735 129.28 167.365C125.874 156.841 122.717 150.13 120.048 145.848C122.044 149.901 124.226 155.262 126.521 162.353C136.297 192.559 118.564 241.642 118.564 241.642H122.984Z" fill="black" fill-opacity="0.72"/>
<path opacity="0.1" d="M118.822 129.137C116.079 127.885 113.143 127.149 110.151 126.964C108.713 123.846 108.485 122.242 110.348 122.321C110.865 122.418 111.386 122.532 111.903 122.665C115.559 125.815 118.822 129.137 118.822 129.137V129.137Z" fill="black" fill-opacity="0.72"/>
<path opacity="0.1" d="M57.2727 35.7017C57.532 36.155 57.8463 36.5719 58.2077 36.9424C57.9422 36.4934 57.6286 36.0772 57.2727 35.7017V35.7017Z" fill="black" fill-opacity="0.72"/>
<path opacity="0.1" d="M98.8147 74.1535C99.1661 74.4985 99.4954 74.8669 99.8004 75.2565C98.8045 72.7716 97.5746 70.6228 96.0555 69.1417C88.5529 61.8264 76.2757 62.2984 76.2757 62.2984L91.6725 69.6229C94.3108 70.6445 96.7355 72.1826 98.8147 74.1535Z" fill="black" fill-opacity="0.72"/>
<path opacity="0.1" d="M115.153 42.2402C116.081 43.6312 115.56 49.5344 114.713 55.5719C112.927 67.9061 114.898 80.5112 120.35 91.6261C121.075 93.1135 121.884 94.5548 122.773 95.9424C117.577 84.9918 115.727 72.6552 117.472 60.5837C118.319 54.5463 118.84 48.643 117.912 47.252C115.866 44.1842 107.227 25.3059 106.545 20.3504C106.34 18.4279 106.293 16.4909 106.402 14.56C104.636 9.35902 104.468 0 104.468 0C104.468 0 103.104 10.3831 103.786 15.3386C104.468 20.2941 113.107 39.1725 115.153 42.2402V42.2402Z" fill="black" fill-opacity="0.72"/>
<path opacity="0.1" d="M136.483 9.61702C136.391 9.15061 136.253 8.6955 136.07 8.25928C136.07 8.25928 136.245 8.76858 136.483 9.61702Z" fill="black" fill-opacity="0.72"/>
<path opacity="0.1" d="M56.1801 33.3831C58.1838 33.6377 60.4887 34.2758 62.2468 35.7557C62.1321 35.3531 62.0321 34.9922 61.9524 34.6889C59.9062 26.9016 48.9932 28.3175 48.9932 28.3175C53.9249 28.9737 55.1988 31.1631 56.1801 33.3831Z" fill="black" fill-opacity="0.72"/>
<path d="M270.58 229.518C267.19 234.915 268.119 241.779 268.119 241.779C268.119 241.779 274.545 239.893 277.936 234.496C281.327 229.099 280.398 222.235 280.398 222.235C280.398 222.235 273.971 224.121 270.58 229.518Z" fill="#3F3D56" fill-opacity="0.77"/>
<path d="M273.127 230.472C272.859 236.909 268.256 241.931 268.256 241.931C268.256 241.931 264.086 236.516 264.354 230.078C264.622 223.641 269.226 218.62 269.226 218.62C269.226 218.62 273.395 224.035 273.127 230.472Z" fill="#63608D" fill-opacity="0.47"/>
<path d="M213.407 189.736C213.407 189.736 217.308 185.488 218.905 186.342C220.502 187.197 214.314 190.996 214.314 190.996L213.407 189.736Z" fill="#FFB9B9"/>
<path opacity="0.1" d="M213.407 189.736C213.407 189.736 217.308 185.488 218.905 186.342C220.502 187.197 214.314 190.996 214.314 190.996L213.407 189.736Z" fill="black" fill-opacity="0.72"/>
<path d="M224.915 186.959L215.072 192.571C215.015 192.61 214.95 192.636 214.882 192.647C214.815 192.657 214.746 192.652 214.68 192.632C214.614 192.612 214.553 192.577 214.502 192.53C214.451 192.483 214.41 192.425 214.383 192.36L211.971 187.128C211.926 186.979 211.933 186.818 211.992 186.674C212.051 186.53 212.158 186.413 212.294 186.344L220.466 181.972C220.567 181.909 220.686 181.887 220.802 181.91C220.917 181.933 221.02 181.999 221.092 182.096L225.174 186.088C225.214 186.162 225.239 186.244 225.248 186.329C225.257 186.414 225.249 186.499 225.224 186.581C225.2 186.662 225.16 186.738 225.107 186.803C225.054 186.868 224.989 186.921 224.915 186.959V186.959Z" fill="#2F2E41" fill-opacity="0.62"/>
<path d="M219.912 189.278C219.944 189.238 219.944 189.183 219.911 189.154C219.878 189.126 219.826 189.135 219.794 189.175C219.762 189.215 219.762 189.27 219.795 189.299C219.828 189.327 219.88 189.318 219.912 189.278Z" fill="#F2F2F2"/>
<path d="M17.0092 241.284H295V242H17.0092V241.284Z" fill="#3F3D56" fill-opacity="0.77"/>
<path d="M198.041 169.45C198.189 169.327 198.019 168.851 197.662 168.389C197.304 167.927 196.893 167.652 196.745 167.776C196.596 167.9 196.766 168.375 197.124 168.837C197.482 169.3 197.892 169.574 198.041 169.45Z" fill="#63608D" fill-opacity="0.47"/>
<path d="M168.489 229.518C165.099 234.915 166.028 241.779 166.028 241.779C166.028 241.779 172.454 239.893 175.845 234.496C179.236 229.099 178.307 222.235 178.307 222.235C178.307 222.235 171.88 224.121 168.489 229.518Z" fill="#3F3D56" fill-opacity="0.77"/>
<path d="M171.036 230.472C170.768 236.909 166.165 241.931 166.165 241.931C166.165 241.931 161.995 236.516 162.263 230.078C162.531 223.641 167.135 218.62 167.135 218.62C167.135 218.62 171.304 224.035 171.036 230.472Z" fill="#63608D" fill-opacity="0.47"/>
<path d="M112.688 231.559C114.309 237.779 119.862 241.631 119.862 241.631C119.862 241.631 122.786 235.399 121.165 229.179C119.544 222.96 113.991 219.108 113.991 219.108C113.991 219.108 111.067 225.34 112.688 231.559Z" fill="#3F3D56" fill-opacity="0.77"/>
<path d="M115.07 230.223C119.518 234.717 120.062 241.626 120.062 241.626C120.062 241.626 113.393 241.248 108.945 236.754C104.497 232.259 103.954 225.351 103.954 225.351C103.954 225.351 110.622 225.728 115.07 230.223V230.223Z" fill="#63608D" fill-opacity="0.47"/>
<path d="M100.327 61.5901C99.9405 68.0208 95.2449 72.9499 95.2449 72.9499C95.2449 72.9499 91.1763 67.453 91.563 61.0224C91.9497 54.5917 96.6453 49.6626 96.6453 49.6626C96.6453 49.6626 100.714 55.1595 100.327 61.5901V61.5901Z" fill="#63608D" fill-opacity="0.47"/>
<path d="M51.38 20.9368C56.6312 24.373 58.5465 31.0136 58.5465 31.0136C58.5465 31.0136 51.948 32.083 46.6968 28.6468C41.4457 25.2105 39.5303 18.5699 39.5303 18.5699C39.5303 18.5699 46.1289 17.5006 51.38 20.9368Z" fill="#63608D" fill-opacity="0.47"/>
<path d="M39.6534 99.3355C44.9045 102.772 46.8198 109.412 46.8198 109.412C46.8198 109.412 40.2213 110.482 34.9702 107.045C29.719 103.609 27.8037 96.9687 27.8037 96.9687C27.8037 96.9687 34.4022 95.8993 39.6534 99.3355Z" fill="#63608D" fill-opacity="0.47"/>
<path d="M146.407 32.398C144.824 38.628 139.295 42.5158 139.295 42.5158C139.295 42.5158 136.333 36.3029 137.917 30.0729C139.5 23.843 145.029 19.9551 145.029 19.9551C145.029 19.9551 147.991 26.1681 146.407 32.398Z" fill="#63608D" fill-opacity="0.47"/>
<path d="M196.361 37.2557C194.5 43.4024 188.803 47.0189 188.803 47.0189C188.803 47.0189 186.123 40.6696 187.984 34.5229C189.845 28.3762 195.543 24.7597 195.543 24.7597C195.543 24.7597 198.223 31.109 196.361 37.2557V37.2557Z" fill="#63608D" fill-opacity="0.47"/>
<path d="M250.354 105.666C246.982 111.076 240.562 112.986 240.562 112.986C240.562 112.986 239.609 106.125 242.981 100.715C246.352 95.3054 252.772 93.3949 252.772 93.3949C252.772 93.3949 253.725 100.256 250.354 105.666V105.666Z" fill="#63608D" fill-opacity="0.47"/>
<path d="M55.9947 232.686C55.9066 230.508 54.3966 228.876 52.7119 228.876H52.4516C50.9844 228.876 49.5558 228.292 48.3477 227.214C47.1814 226.172 45.68 225.717 44.0919 226.182C43.5917 226.328 39.9978 227.662 40 232.902C40.0011 235.453 41.0744 237.677 42.6664 238.87V241.53C42.6664 241.848 42.8653 242.106 43.1108 242.106H43.5553C43.8008 242.106 43.9997 241.848 43.9997 241.53V239.58C44.4264 239.722 44.8719 239.805 45.333 239.805C45.4841 239.805 45.6297 239.779 45.7775 239.762V241.53C45.7775 241.848 45.9764 242.106 46.2219 242.106H46.6664C46.9119 242.106 47.1108 241.848 47.1108 241.53V239.394C47.5064 239.212 47.8852 238.984 48.2314 238.692C49.5019 237.621 50.9405 236.929 52.4572 236.929C53.1649 236.929 52.9019 236.918 53.0974 236.901L55.1644 241.806C55.2438 241.994 55.3949 242.106 55.5547 242.106C55.591 242.106 55.628 242.1 55.6644 242.088C55.8613 242.023 55.9991 241.793 55.9991 241.53C55.9991 241.53 56.003 232.894 55.9947 232.686ZM52.888 233.765C52.5199 233.765 52.2213 233.379 52.2213 232.902C52.2213 232.426 52.5199 232.039 52.888 232.039C53.2561 232.039 53.5547 232.426 53.5547 232.902C53.5547 233.379 53.2561 233.765 52.888 233.765ZM55.1102 239.275L54.003 236.647C54.423 236.438 54.801 236.122 55.1102 235.713V239.275Z" fill="#3F3D56" fill-opacity="0.88"/>
<path d="M316.564 44.799L310.841 43.5203C310.122 41.5767 308.811 40.5744 308.811 40.5744C305.507 38.0894 300.749 38.6877 298.164 41.9133L295.831 44.8243L282.386 34.0642C281.467 41.2542 284.138 47.9926 289.242 53.0457L280.613 63.469C280.613 63.469 297.012 64.9439 305.425 56.723C309.907 52.3391 310.744 50.0054 311.153 47.6018L316.564 44.799ZM307.115 46.3764C306.5 47.1435 305.351 47.288 304.565 46.6971C303.78 46.1061 303.642 45.0092 304.257 44.2422C304.871 43.4751 306.02 43.3306 306.806 43.9216C307.592 44.5125 307.73 45.6094 307.115 46.3764Z" fill="#3F3D56" fill-opacity="0.88"/>
<path d="M231.169 227.314C231.169 227.314 231.572 225.012 229.887 226.052C229.887 226.052 229.741 223.712 228.312 225.346C228.312 225.346 227.543 223.898 226.701 225.235C225.566 227.017 224.796 229.839 225.529 234.518L226.921 233.59C227.91 230.656 231.462 230.322 231.938 228.725C232.268 227.611 231.169 227.314 231.169 227.314M217.362 224.826L213.736 226.163C214.541 221.707 219.815 222.004 219.815 222.004C219.815 222.004 217.325 223.192 217.362 224.826" fill="#3F3D56" fill-opacity="0.88"/>
<path d="M217.948 225.643L214.102 226.163C215.86 222.004 220.951 223.452 220.951 223.452C220.951 223.452 218.277 224.046 217.948 225.643" fill="#3F3D56" fill-opacity="0.88"/>
<path d="M210 229.059L211.978 228.54V229.876C211.978 229.839 210.769 229.653 210 229.059M211.978 228.502L210 227.5C211.318 226.46 212.82 226.794 212.82 226.794L211.978 228.502Z" fill="#8F8F8F"/>
<path d="M221.647 237.971H220.878V240.905C220.768 240.942 220.108 240.868 219.815 240.868C219.156 240.868 218.607 241.35 218.607 241.35H221.647V237.971ZM218.424 237.971H217.655V240.905C217.545 240.942 216.885 240.868 216.592 240.868C215.933 240.868 215.384 241.35 215.384 241.35H218.424V237.971Z" fill="black" fill-opacity="0.72"/>
<path d="M229.045 231.733C230.473 231.733 227.543 238.231 220.511 238.231C215.75 238.231 211.758 236.3 211.758 230.248C211.758 226.497 214.102 223.452 218.9 224.678C223.771 225.977 221.28 231.733 229.045 231.733Z" fill="#3F3D56" fill-opacity="0.88"/>
<path d="M223.038 237.489C217.325 237.489 217.911 233.033 212.82 233.33C214.688 239.197 223.038 237.489 223.038 237.489Z" fill="white"/>
<path d="M223.588 229.134C219.925 225.495 216.19 231.436 220.694 233.812C225.126 236.115 228.166 232.03 228.166 232.03C228.166 232.03 225.932 231.473 223.588 229.134Z" fill="#232425"/>
<path d="M214.798 228.465C215.304 228.465 215.713 228.05 215.713 227.537C215.713 227.024 215.304 226.609 214.798 226.609C214.292 226.609 213.882 227.024 213.882 227.537C213.882 228.05 214.292 228.465 214.798 228.465Z" fill="#EBF3FA"/>
<path d="M31.8031 108.12C31.606 107.768 31.3067 107.552 31.0691 107.427C31.1055 106.982 31.0961 106.258 30.7221 105.817C30.4139 105.452 29.9355 105.348 29.3649 105.546C29.2263 104.978 28.905 104.235 28.1639 104.235C27.8435 104.235 27.5109 104.387 27.1581 104.696C26.9129 104.427 26.5457 104.145 26.0813 104.145C25.602 104.145 25.1682 104.438 24.7925 105.016C23.7782 106.575 23.2031 108.464 23.0316 110.698C22.6019 110.367 22.1599 109.991 21.7131 109.558C21.4107 109.265 21.0988 109.018 20.7807 108.809C20.6718 108.624 20.5638 108.437 20.4571 108.248C19.581 106.699 18.6769 105.101 16.3684 104.348C17.286 103.814 18.3228 103.572 18.3358 103.569L20.0319 103.183L18.3556 102.718C18.3138 102.707 17.3607 102.447 16.0656 102.418C16.5943 102.056 17.0389 101.843 17.0461 101.84L18.6027 101.103L16.8796 101.005C16.8796 101.005 16.7847 101 16.6146 101C15.2961 101 10.9171 101.294 9.41993 105.044C8.72557 105.553 8.15767 106.228 7.72027 107.02C7.05246 107.02 5.98956 107.165 5 107.926L6.99036 108.924C6.96291 109.036 6.92961 109.144 6.90621 109.258L5 109.761C5.53595 110.181 6.23886 110.43 6.74511 110.567C6.73206 110.781 6.71541 110.991 6.71541 111.21C6.71541 116.529 9.30202 119.777 14.2336 120.759V123.768C14.086 123.794 13.2823 123.724 12.9542 123.724C12.1384 123.724 11.4764 124.275 11.4764 124.275H15.166V120.92C15.963 121.026 16.8126 121.08 17.7166 121.08C17.8674 121.08 18.0141 121.074 18.1621 121.07V123.768C18.015 123.793 17.2104 123.724 16.8828 123.724C16.0669 123.724 15.4054 124.275 15.4054 124.275H19.0945V121.011C25.5323 120.366 28.8956 115.318 28.8956 113.494C28.8956 113.225 28.8308 113.001 28.7052 112.83C28.5761 112.654 28.3875 112.55 28.1688 112.517C28.5932 112.23 29.031 111.973 29.454 111.73C30.6038 111.071 31.5974 110.501 31.8967 109.53C32.0614 109 32.0285 108.526 31.8031 108.12M26.1645 113.481C25.3887 114.276 23.6022 115.782 21.1947 115.782C20.184 115.782 19.1517 115.516 18.1275 114.993C16.3824 114.103 15.5652 112.651 15.9409 111.109C16.2514 109.838 17.3121 108.95 18.5203 108.95C19.3722 108.95 20.2618 109.377 21.0943 110.186C23.1693 112.201 25.1588 113.114 26.1645 113.481ZM27.4259 115.081C26.0358 117.443 22.6599 120.202 17.7166 120.202C11.0039 120.202 7.60056 117.176 7.60056 111.209C7.60056 108.778 8.49067 106.763 10.0418 105.682L10.1539 105.604L10.202 105.476C11.1151 103.034 13.4866 102.24 15.1602 101.989C14.9226 102.174 14.6818 102.382 14.46 102.613L13.6058 103.498L14.833 103.353C15.3541 103.29 15.9414 103.281 16.4481 103.314C15.9706 103.541 15.4698 103.838 15.058 104.216L14.4352 104.787L15.2641 104.967C15.3955 104.995 15.5265 105.024 15.6606 105.058C17.7243 105.579 18.6099 106.815 19.405 108.187C19.1107 108.112 18.8151 108.072 18.5208 108.072C16.9026 108.072 15.4882 109.236 15.0805 110.903C14.7111 112.417 15.211 114.492 17.7225 115.775C18.874 116.363 20.0418 116.661 21.1951 116.661C24.8991 116.661 27.2036 113.657 27.299 113.529L27.4187 113.37C27.6081 113.378 27.8016 113.382 28.0028 113.383C28.041 113.554 27.9776 114.143 27.4259 115.081M31.0511 109.273C30.8535 109.914 29.9994 110.403 29.0112 110.97C28.3016 111.378 27.5141 111.845 26.8017 112.454C26.3832 112.422 26.0061 112.37 25.6475 112.307C25.1475 112.074 24.5423 111.749 23.8781 111.307C23.982 108.981 24.5252 107.05 25.5368 105.492C25.7307 105.195 25.9287 105.024 26.0822 105.024C26.3265 105.024 26.6213 105.408 26.7176 105.582L27.0213 106.141L27.4416 105.662C27.8997 105.14 28.1243 105.113 28.1648 105.113C28.3268 105.113 28.5414 105.684 28.5824 106.224L28.6346 106.929L29.2479 106.57C29.6124 106.357 29.8158 106.325 29.9045 106.325C29.99 106.325 30.0192 106.352 30.0444 106.381C30.2289 106.598 30.2186 107.253 30.1524 107.626L30.0885 108.017L30.4706 108.125C30.4746 108.126 30.8616 108.24 31.0313 108.551C31.1339 108.74 31.1411 108.983 31.0511 109.273" fill="#3F3D56" fill-opacity="0.88"/>
<path d="M10.648 109.022C11.2693 109.022 11.773 108.521 11.773 107.903C11.773 107.285 11.2693 106.784 10.648 106.784C10.0267 106.784 9.52298 107.285 9.52298 107.903C9.52298 108.521 10.0267 109.022 10.648 109.022Z" fill="#3F3D56" fill-opacity="0.88"/>
<path d="M263 44.5027L260.386 43.5053C260.163 42.4902 259.606 41.9077 259.606 41.9077C258.2 40.4601 255.929 40.4601 254.523 41.9077L253.254 43.214L247.571 37C246.714 40.5307 247.571 44.0614 249.671 46.9036L245 51.5641C245 51.5641 252.62 53.3295 257.06 49.7546C259.426 47.8481 259.957 46.7359 260.291 45.5619L263 44.5027ZM258.466 44.6969C258.131 45.0412 257.583 45.0412 257.249 44.6969C256.914 44.3527 256.914 43.7966 257.249 43.4524C257.583 43.1081 258.131 43.1081 258.466 43.4524C258.8 43.7966 258.8 44.3527 258.466 44.6969Z" fill="#3F3D56" fill-opacity="0.88"/>
<path d="M292.687 16.9924L289.102 15.664C288.796 14.3121 288.032 13.5362 288.032 13.5362C286.104 11.6083 282.989 11.6083 281.061 13.5362L279.321 15.2761L271.527 7C270.351 11.7023 271.527 16.4046 274.407 20.19L268 26.397C268 26.397 278.451 28.7482 284.54 23.9871C287.785 21.4478 288.514 19.9666 288.972 18.4031L292.687 16.9924ZM286.468 17.251C286.01 17.7095 285.257 17.7095 284.799 17.251C284.341 16.7926 284.341 16.0519 284.799 15.5935C285.257 15.135 286.01 15.135 286.468 15.5935C286.927 16.0519 286.927 16.7926 286.468 17.251Z" fill="#3F3D56" fill-opacity="0.88"/>
</svg>
