<svg width="1013" height="285" viewBox="0 0 1013 285" fill="none" xmlns="http://www.w3.org/2000/svg">
<g id="&#240;&#159;&#166;&#134; icon &#34;shopping cart&#34;">
<path id="Vector" d="M77.1152 18.1496C77.1252 18.1404 77.1354 18.1313 77.1457 18.1224L89.9867 6.65331C91.2553 5.52017 91.5978 3.8108 90.7964 2.61173L90.4622 2.11175C90.1604 1.66019 90.3491 1.00442 90.8838 0.64706C91.4185 0.289698 92.0966 0.366067 92.3984 0.817634L92.7326 1.31761C94.0352 3.26655 93.5246 6.02435 91.5374 7.91145L109.292 34.476C109.656 35.0192 109.302 35.8228 108.584 36.087L92.8443 41.8753C92.3617 42.0527 91.8607 41.9234 91.6167 41.5584L77.5067 20.4474L76.1972 21.6171C74.9285 22.7503 74.586 24.4596 75.3874 25.6587L87.7443 44.1466C88.0461 44.5982 87.8573 45.2539 87.3227 45.6113C86.788 45.9687 86.1099 45.8923 85.8081 45.4407L73.4512 26.9528C72.1155 24.9544 72.6863 22.1054 74.8007 20.2168L77.1152 18.1496L77.1152 18.1496ZM89.7851 9.4808L79.2608 18.8808L93.1407 39.6475L106.632 34.6861L89.7851 9.4808ZM63.5578 33.1058C62.3506 31.2995 63.1056 28.6764 65.2443 27.247C67.383 25.8175 70.0954 26.123 71.3027 27.9293C72.51 29.7355 71.7549 32.3586 69.6162 33.788C67.4775 35.2175 64.7651 34.912 63.5578 33.1058ZM65.494 31.8116C66.0977 32.7148 67.4539 32.8675 68.5232 32.1528C69.5926 31.4381 69.9701 30.1265 69.3665 29.2234C68.7628 28.3203 67.4066 28.1675 66.3373 28.8822C65.2679 29.597 64.8904 30.9085 65.494 31.8116ZM73.3946 47.8232C72.1873 46.0169 72.9424 43.3938 75.081 41.9644C77.2197 40.5349 79.9322 40.8404 81.1394 42.6467C82.3467 44.453 81.5916 47.076 79.4529 48.5055C77.3142 49.9349 74.6018 49.6294 73.3946 47.8232ZM75.3308 46.529C75.9344 47.4322 77.2906 47.5849 78.36 46.8702C79.4293 46.1555 79.8068 44.8439 79.2032 43.9408C78.5996 43.0377 77.2434 42.8849 76.174 43.5997C75.1047 44.3144 74.7271 45.6259 75.3308 46.529Z" fill="black" fill-opacity="0.18"/>
</g>
<g id="&#240;&#159;&#166;&#134; icon &#34;plus&#34;">
<path id="Vector_2" d="M917.604 267.66L928.177 281.724C928.707 282.43 928.653 283.366 928.056 283.816C927.458 284.265 926.543 284.057 926.012 283.351L915.44 269.287L903.538 278.235C902.94 278.684 902.025 278.476 901.495 277.77C900.964 277.063 901.018 276.127 901.615 275.678L913.518 266.73L902.946 252.666C902.415 251.96 902.469 251.024 903.066 250.574C903.664 250.125 904.579 250.333 905.11 251.04L915.682 265.103L927.584 256.156C928.182 255.706 929.097 255.915 929.627 256.621C930.158 257.327 930.104 258.263 929.507 258.713L917.604 267.66Z" fill="black" fill-opacity="0.19"/>
</g>
<g id="&#240;&#159;&#166;&#134; icon &#34;plus circle&#34;">
<path id="Vector_3" d="M23.5714 98.7905H31.0714C31.6632 98.7905 32.1429 99.2335 32.1429 99.78C32.1429 100.326 31.6632 100.77 31.0714 100.77H23.5714V107.696C23.5714 108.243 23.0917 108.686 22.5 108.686C21.9083 108.686 21.4286 108.243 21.4286 107.696V100.77H13.9286C13.3368 100.77 12.8571 100.326 12.8571 99.78C12.8571 99.2335 13.3368 98.7905 13.9286 98.7905H21.4286V91.8638C21.4286 91.3173 21.9083 90.8743 22.5 90.8743C23.0917 90.8743 23.5714 91.3173 23.5714 91.8638V98.7905ZM22.5 120.56C10.0736 120.56 0 111.256 0 99.78C0 88.3035 10.0736 79 22.5 79C34.9264 79 45 88.3035 45 99.78C45 111.256 34.9264 120.56 22.5 120.56ZM22.5 118.581C33.7429 118.581 42.8571 110.163 42.8571 99.78C42.8571 89.3965 33.7429 80.979 22.5 80.979C11.2571 80.979 2.14286 89.3965 2.14286 99.78C2.14286 110.163 11.2571 118.581 22.5 118.581Z" fill="black" fill-opacity="0.18"/>
</g>
<g id="&#240;&#159;&#166;&#134; icon &#34;happy&#34;">
<path id="Vector_4" d="M989 158C975.745 158 965 167.85 965 180C965 192.15 975.745 202 989 202C1002.25 202 1013 192.15 1013 180C1013 167.85 1002.25 158 989 158ZM1003.71 193.482C1000.06 196.815 995.191 198.784 990.047 199.006C984.902 199.227 979.852 197.685 975.881 194.68C971.909 191.674 969.301 187.421 968.563 182.749C967.826 178.077 969.012 173.321 971.891 169.407C974.77 165.493 979.136 162.702 984.138 161.577C989.139 160.453 994.419 161.075 998.947 163.324C1003.47 165.572 1006.93 169.286 1008.63 173.741C1010.34 178.195 1010.17 183.072 1008.17 187.421C1007.12 189.687 1005.61 191.745 1003.71 193.482Z" fill="black" fill-opacity="0.17"/>
<path id="Vector_5" d="M988 180H984V183.667H988V180Z" fill="black" fill-opacity="0.17"/>
<path id="Vector_6" d="M999.4 174.867H995.4V178.533H999.4V174.867Z" fill="black" fill-opacity="0.17"/>
<path id="Vector_7" d="M997.229 184.693C996.61 186.125 995.535 187.352 994.144 188.216C992.753 189.079 991.11 189.538 989.43 189.533H988.57C986.89 189.538 985.247 189.079 983.856 188.216C982.465 187.352 981.39 186.125 980.771 184.693L980.643 184.4H977.197L977.8 185.782C978.661 187.755 980.147 189.447 982.067 190.638C983.987 191.83 986.252 192.467 988.57 192.467H989.43C991.748 192.467 994.013 191.83 995.933 190.638C997.853 189.447 999.339 187.755 1000.2 185.782L1000.8 184.4H997.357L997.229 184.693Z" fill="black" fill-opacity="0.17"/>
</g>
<g id="&#240;&#159;&#166;&#134; icon &#34;emo happy&#34;">
<path id="Vector_8" d="M972.463 232C970.039 232 968.072 234.52 968.072 237.614C968.072 240.706 970.039 243.226 972.463 243.226C974.887 243.226 976.853 240.706 976.853 237.614C976.853 234.52 974.887 232 972.463 232ZM991.537 232C989.113 232 987.147 234.52 987.147 237.614C987.147 240.706 989.113 243.226 991.537 243.226C993.961 243.226 995.928 240.706 995.928 237.614C995.928 234.52 993.961 232 991.537 232V232ZM999.873 255.288C999.333 255.292 998.795 255.501 998.387 255.914C998.235 256.068 998.07 256.229 997.903 256.389C993.478 260.617 987.769 262.762 982.046 262.81C976.367 262.86 970.665 260.844 966.184 256.757L966.074 256.663L965.589 256.198C964.759 255.387 963.421 255.397 962.606 256.222C961.79 257.048 961.799 258.377 962.629 259.187C962.778 259.333 962.972 259.512 963.207 259.729L963.324 259.845C968.62 264.674 975.362 267.056 982.081 266.999C988.85 266.942 995.601 264.407 1000.83 259.412C1001.01 259.235 1001.2 259.048 1001.39 258.854C1002.21 258.029 1002.2 256.701 1001.37 255.89C1000.96 255.485 1000.41 255.283 999.873 255.288L999.873 255.288Z" fill="black" fill-opacity="0.13"/>
</g>
<g id="&#240;&#159;&#166;&#134; icon &#34;emo happy&#34;_2">
<path id="Vector_9" d="M17.6782 23C15.4359 23 13.6162 25.4076 13.6162 28.3648C13.6162 31.3192 15.4359 33.7274 17.6782 33.7274C19.9206 33.7274 21.739 31.3192 21.739 28.3648C21.739 25.4076 19.9205 23 17.6782 23ZM35.3218 23C33.0794 23 31.261 25.4076 31.261 28.3648C31.261 31.3192 33.0795 33.7274 35.3218 33.7274C37.5641 33.7274 39.3838 31.3192 39.3838 28.3648C39.3838 25.4076 37.5641 23 35.3218 23V23ZM43.0326 45.2525C42.533 45.2566 42.0355 45.4561 41.6578 45.8505C41.5171 45.9979 41.365 46.152 41.2099 46.3046C37.1172 50.3447 31.836 52.3946 26.5428 52.4405C21.2893 52.4879 16.0153 50.5617 11.87 46.6564L11.7681 46.567L11.3202 46.1223C10.5519 45.3476 9.31476 45.3567 8.56019 46.1455C7.80551 46.9343 7.81384 48.2042 8.58219 48.9789C8.72002 49.1181 8.89896 49.2894 9.11686 49.4968L9.22448 49.6071C14.1231 54.222 20.3601 56.4981 26.5752 56.4433C32.8359 56.3892 39.0805 53.9663 43.9156 49.1937C44.0881 49.0242 44.2631 48.8459 44.4398 48.6607C45.1945 47.872 45.1862 46.6032 44.4178 45.8285C44.0337 45.4408 43.5322 45.2485 43.0326 45.2525L43.0326 45.2525Z" fill="black" fill-opacity="0.1"/>
</g>
</svg>
