<svg width="47" height="49" viewBox="0 0 47 49" fill="none" xmlns="http://www.w3.org/2000/svg">
<path d="M35.6151 7.74812C39.7699 9.67169 43.2999 12.7795 44.154 16.7556C44.6233 19.5031 44.1088 22.3061 42.6766 24.8058C40.8437 28.2576 37.9617 31.2404 34.3218 33.4525C31.4063 35.2244 27.983 36.532 25.7109 38.8573C23.5632 41.0551 22.4094 44.1602 19.2756 45.2968C17.7136 45.7961 16.0042 45.8663 14.3921 45.4971C-0.685679 42.5474 1.38726 24.0304 8.38043 16.1379L8.40315 16.1124C9.52946 14.7473 10.8869 13.5285 12.4322 12.4947" stroke="black" stroke-opacity="0.06" stroke-width="4.82578" stroke-linecap="round" stroke-linejoin="round"/>
<path d="M29.3336 3.39545V7.74705" stroke="black" stroke-opacity="0.06" stroke-width="4.82578" stroke-linecap="round" stroke-linejoin="round"/>
<path d="M28.3945 5.73231C28.3945 5.73231 24.7338 10.5847 19.5041 11.9865C14.2744 13.3884 7.73746 11.4473 7.73746 11.4473C7.73746 11.4473 11.3982 6.59496 16.6279 5.19311C21.8576 3.79126 28.3945 5.73231 28.3945 5.73231V5.73231Z" stroke="black" stroke-opacity="0.06" stroke-width="4.82578" stroke-linecap="round" stroke-linejoin="round"/>
</svg>
